<?xml version="1.0" encoding="UTF-8"?>
<svg id="Layer_1" xmlns="http://www.w3.org/2000/svg" version="1.1" viewBox="0 0 200 200">
  <!-- Generator: Adobe Illustrator 29.1.0, SVG Export Plug-In . SVG Version: 2.1.0 Build 142)  -->
  <defs>
    <style>
      .st0 {
        fill: #116087;
      }

      .st1 {
        fill: none;
        stroke: #116087;
        stroke-miterlimit: 10;
        stroke-width: 3px;
      }
    </style>
  </defs>
  <g>
    <path class="st0" d="M151.88,65.96l-4.34-3.67v-11.47c0-.91-.73-1.64-1.64-1.64h-6.56c-.91,0-1.64.73-1.64,1.64v3.15l-7.14-6.04c-.61-.51-1.51-.51-2.12,0l-21.31,18.03c-.52.44-.72,1.17-.48,1.81.24.65.85,1.08,1.54,1.08h36.07v22.95h-8.2v-14.75c0-.91-.73-1.64-1.64-1.64h-9.84c-.91,0-1.64.73-1.64,1.64v14.75h-8.2v-19.62c0-.91-.73-1.64-1.64-1.64s-1.64.73-1.64,1.64v21.26c0,.91.73,1.64,1.64,1.64h32.79c.91,0,1.64-.73,1.64-1.64v-24.59h3.28c.69,0,1.3-.43,1.54-1.08s.04-1.37-.48-1.82ZM126.23,91.8v-13.11h6.56v13.11h-6.56ZM140.98,52.46h3.28v7.06l-3.28-2.77v-4.29ZM129.51,51.33l16.84,14.25h-33.67l16.84-14.25Z"/>
    <path class="st0" d="M91.8,109.84h-42.62c-.91,0-1.64.73-1.64,1.64v39.34c0,.91.73,1.64,1.64,1.64h42.62c.91,0,1.64-.73,1.64-1.64v-39.34c0-.91-.73-1.64-1.64-1.64ZM90.16,149.18h-39.34v-36.07h24.59v8.82l-.91-.45c-.46-.23-1-.23-1.47,0l-2.54,1.27-2.55-1.27c-.46-.23-1-.23-1.47,0l-.9.45v-5.54c0-.91-.73-1.64-1.64-1.64s-1.64.73-1.64,1.64v8.2c0,.57.3,1.1.78,1.4.48.3,1.08.32,1.6.07l2.54-1.27,2.55,1.27s.05,0,.07.02c.21.09.43.15.66.15,0,0,0,0,0,0h0s0,0,0,0c.23,0,.45-.06.66-.15.02,0,.05,0,.07-.02l2.54-1.27,2.55,1.27c.51.25,1.11.23,1.6-.07.48-.3.78-.82.78-1.39v-11.48h11.48v36.07Z"/>
    <path class="st0" d="M101.64,68.85v-4.92c0-1.81-1.47-3.28-3.28-3.28h-17.87c-.91,0-1.64.73-1.64,1.64s.73,1.64,1.64,1.64h17.87v4.92h-21.31c-1.81,0-3.28,1.47-3.28,3.28v16.39c0,1.81,1.47,3.28,3.28,3.28l2.56.04-8.43,8.99-8.55-9.03h2.94c1.81,0,3.28-1.47,3.28-3.28v-24.59h4.85c.91,0,1.64-.73,1.64-1.64s-.73-1.64-1.64-1.64h-4.85c-1.81,0-3.28,1.47-3.28,3.28v24.59h-2.94c-1.3,0-2.45.74-2.99,1.92-.54,1.19-.34,2.53.56,3.56l8.55,9.03c.6.68,1.46,1.09,2.36,1.12.03,0,.07,0,.1,0,.87,0,1.71-.35,2.36-1l8.39-9.04c.94-.94,1.22-2.34.71-3.57s-1.7-2.02-3.03-2.02h-2.6v-16.39h21.31c1.81,0,3.28-1.47,3.28-3.28h0Z"/>
    <path class="st0" d="M132.82,101.88c-.6-.68-1.46-1.09-2.36-1.12-.91-.05-1.79.32-2.48,1.01l-8.32,9.03c-.94.94-1.22,2.34-.71,3.57s1.7,2.02,3.03,2.02h2.6v16.39h-21.31c-1.81,0-3.28,1.47-3.28,3.28v4.92c0,1.81,1.47,3.28,3.28,3.28h29.51c1.81,0,3.28-1.47,3.28-3.28v-24.59h2.94c1.3,0,2.45-.74,2.99-1.92.54-1.19.34-2.53-.57-3.57l-8.61-9.02ZM136.07,113.11c-1.81,0-3.28,1.47-3.28,3.28v24.59h-29.51v-4.92h21.31c1.81,0,3.28-1.47,3.28-3.28v-16.39c0-1.81-1.47-3.28-3.28-3.28l-2.55-.05,8.37-8.98,8.61,9.02h-2.94Z"/>
  </g>
  <circle class="st1" cx="100" cy="100" r="86.2"/>
</svg>