<?xml version="1.0" encoding="UTF-8"?>
<svg id="Layer_1" xmlns="http://www.w3.org/2000/svg" version="1.1" viewBox="0 0 200 200">
  <!-- Generator: Adobe Illustrator 29.1.0, SVG Export Plug-In . SVG Version: 2.1.0 Build 142)  -->
  <defs>
    <style>
      .st0 {
        fill: #116087;
      }

      .st1 {
        fill: none;
        stroke: #116087;
        stroke-miterlimit: 10;
        stroke-width: 3px;
      }
    </style>
  </defs>
  <g>
    <path class="st0" d="M66.48,105.03h10.06c.93,0,1.68-.75,1.68-1.68v-10.06c0-.93-.75-1.68-1.68-1.68h-10.06c-.93,0-1.68.75-1.68,1.68v10.06c0,.93.75,1.68,1.68,1.68ZM68.15,94.97h6.7v6.7h-6.7v-6.7Z"/>
    <path class="st0" d="M84.91,105.03h10.06c.93,0,1.68-.75,1.68-1.68v-10.06c0-.93-.75-1.68-1.68-1.68h-10.06c-.93,0-1.68.75-1.68,1.68v10.06c0,.93.75,1.68,1.68,1.68ZM86.59,94.97h6.7v6.7h-6.7v-6.7Z"/>
    <path class="st0" d="M64.8,121.79c0,.93.75,1.68,1.68,1.68h10.06c.93,0,1.68-.75,1.68-1.68v-10.06c0-.93-.75-1.68-1.68-1.68h-10.06c-.93,0-1.68.75-1.68,1.68v10.06ZM68.15,113.41h6.7v6.7h-6.7v-6.7Z"/>
    <path class="st0" d="M83.24,121.79c0,.93.75,1.68,1.68,1.68h10.06c.93,0,1.68-.75,1.68-1.68v-10.06c0-.93-.75-1.68-1.68-1.68h-10.06c-.93,0-1.68.75-1.68,1.68v10.06ZM86.59,113.41h6.7v6.7h-6.7v-6.7Z"/>
    <path class="st0" d="M64.8,138.55c0,.93.75,1.68,1.68,1.68h10.06c.93,0,1.68-.75,1.68-1.68v-3.35c0-.93-.75-1.68-1.68-1.68s-1.68.75-1.68,1.68v1.68h-6.7v-6.7h8.38c.93,0,1.68-.75,1.68-1.68s-.75-1.68-1.68-1.68h-10.06c-.93,0-1.68.75-1.68,1.68v10.06Z"/>
    <path class="st0" d="M83.24,138.55c0,.93.75,1.68,1.68,1.68h10.06c.93,0,1.68-.75,1.68-1.68v-10.06c0-.93-.75-1.68-1.68-1.68h-10.06c-.93,0-1.68.75-1.68,1.68v10.06ZM86.59,130.17h6.7v6.7h-6.7v-6.7Z"/>
    <path class="st0" d="M103.35,125.14c-.93,0-1.68.75-1.68,1.68v11.73c0,.93.75,1.68,1.68,1.68h10.06c.93,0,1.68-.75,1.68-1.68v-26.82c0-.93-.75-1.68-1.68-1.68h-10.06c-.93,0-1.68.75-1.68,1.68v8.38c0,.93.75,1.68,1.68,1.68s1.68-.75,1.68-1.68v-6.7h6.7v23.47h-6.7v-10.06c0-.93-.75-1.68-1.68-1.68Z"/>
    <path class="st0" d="M103.35,105.03h10.06c.93,0,1.68-.75,1.68-1.68v-10.06c0-.93-.75-1.68-1.68-1.68h-10.06c-.93,0-1.68.75-1.68,1.68v10.06c0,.93.75,1.68,1.68,1.68ZM105.03,94.97h6.7v6.7h-6.7v-6.7Z"/>
    <path class="st0" d="M125.14,64.8c.92,0,1.68.75,1.68,1.68s.75,1.68,1.68,1.68,1.68-.75,1.68-1.68c0-2.18-1.41-4.03-3.35-4.72v-1.99c0-.93-.75-1.68-1.68-1.68s-1.68.75-1.68,1.68v1.99c-1.95.69-3.35,2.54-3.35,4.72,0,2.77,2.26,5.03,5.03,5.03.92,0,1.68.75,1.68,1.68s-.75,1.68-1.68,1.68-1.68-.75-1.68-1.68-.75-1.68-1.68-1.68-1.68.75-1.68,1.68c0,2.18,1.41,4.03,3.35,4.72v1.99c0,.93.75,1.68,1.68,1.68s1.68-.75,1.68-1.68v-1.99c1.95-.69,3.35-2.54,3.35-4.72,0-2.77-2.26-5.03-5.03-5.03-.92,0-1.68-.75-1.68-1.68s.75-1.68,1.68-1.68Z"/>
    <path class="st0" d="M142.31,63.11c-.34-.86-1.32-1.28-2.18-.94-.86.34-1.28,1.32-.94,2.18.69,1.73,1.04,3.57,1.04,5.48,0,8.32-6.77,15.09-15.09,15.09-1.02,0-2.03-.1-3.02-.3-2.83-.57-5.44-1.96-7.54-4.01-2.92-2.87-4.53-6.7-4.53-10.77,0-2.65.7-5.25,2.02-7.54,2.69-4.65,7.7-7.54,13.07-7.54,4.08,0,7.9,1.61,10.77,4.53.65.66,1.71.67,2.37.02.66-.65.67-1.71.02-2.37-3.51-3.57-8.18-5.53-13.16-5.53-6.22,0-12.01,3.2-15.41,8.38h-44.94c-4.62,0-8.38,3.76-8.38,8.38v31.85c0,.93.75,1.68,1.68,1.68s1.68-.75,1.68-1.68v-31.85c0-2.77,2.26-5.03,5.03-5.03h43.19c-.63,1.61-1.02,3.3-1.17,5.03h-40.34c-.93,0-1.68.75-1.68,1.68v15.09c0,.93.75,1.68,1.68,1.68h15.09c.93,0,1.68-.75,1.68-1.68s-.75-1.68-1.68-1.68h-13.41v-11.73h38.64c.37,4.1,2.09,7.91,4.95,10.94v.79h-23.47c-.93,0-1.68.75-1.68,1.68s.75,1.68,1.68,1.68h25.14c.83,0,1.48-.61,1.62-1.39,1.57,1.04,3.28,1.82,5.09,2.33v52.71c0,2.77-2.26,5.03-5.03,5.03h-50.29c-2.77,0-5.03-2.26-5.03-5.03v-33.52c0-.93-.75-1.68-1.68-1.68s-1.68.75-1.68,1.68v33.52c0,4.62,3.76,8.38,8.38,8.38h50.29c4.62,0,8.38-3.76,8.38-8.38v-52.05c.56.05,1.12.08,1.68.08,10.17,0,18.44-8.27,18.44-18.44,0-2.33-.43-4.6-1.28-6.72h0Z"/>
  </g>
  <circle class="st1" cx="100" cy="100" r="86.2"/>
</svg>