<?xml version="1.0" encoding="UTF-8"?>
<svg id="Layer_1" xmlns="http://www.w3.org/2000/svg" version="1.1" viewBox="0 0 200 200">
  <!-- Generator: Adobe Illustrator 29.1.0, SVG Export Plug-In . SVG Version: 2.1.0 Build 142)  -->
  <defs>
    <style>
      .st0 {
        fill: #116087;
      }

      .st1 {
        fill: none;
        stroke: #116087;
        stroke-miterlimit: 10;
        stroke-width: 3px;
      }
    </style>
  </defs>
  <g>
    <path class="st0" d="M139.92,120.68c-6.33,0-11.58,4.65-12.56,10.71h-3.28V56.16h27.07c.64,0,1.17-.53,1.17-1.17s-.53-1.17-1.17-1.17h-68.2c-.64,0-1.17.53-1.17,1.17v24.8h-5.73c-.64,0-1.17.53-1.17,1.17v16.95l-6.05-7.84c-.61-.8-1.54-1.29-2.53-1.42,2.75-1.46,4.64-4.36,4.64-7.69,0-4.79-3.9-8.7-8.7-8.7s-8.7,3.9-8.7,8.7c0,3.55,2.13,6.6,5.19,7.96-2.06.73-3.55,2.67-3.55,4.98v36.4l-6.48,6.64c-1.82,1.86-1.82,4.9.01,6.76,1.88,1.91,4.93,1.93,6.84.07l10.82-10.62c1.23-1.21,1.93-2.88,1.92-4.59v-2.43l1.97,2.31,2.4,13.69c.22,1.28.94,2.4,2,3.14.83.59,1.79.88,2.79.88.28,0,.56-.02.86-.07,2.59-.46,4.34-2.85,3.98-5.45l-2.04-15.12c-.13-.97-.55-1.88-1.22-2.59l-10.75-11.6v-6.22l1.64,2.09c.12.15.27.27.45.35l11.13,4.92c.08.04.18.06.27.09v20.04c0,.64.53,1.17,1.17,1.17h4.78c.16,6.88,5.8,12.42,12.72,12.42s12.55-5.54,12.72-12.42h14.04c.16,6.88,5.8,12.42,12.72,12.42s12.74-5.72,12.74-12.74-5.72-12.76-12.74-12.76h0ZM105.64,131.4v-17.37h16.09v17.37h-16.09ZM103.85,133.74c-.16,1.75-1.62,3.13-3.41,3.13s-3.25-1.38-3.41-3.13h6.82ZM85.35,82.13v14.34c0,.5.32.95.8,1.11.47.16,1,0,1.3-.39l2.16-2.78,2.16,2.78c.22.29.57.46.93.46.13,0,.26-.02.38-.06.47-.16.8-.61.8-1.11v-14.36h8.13v24.76h-13.93c-.35-1.38-1.3-2.6-2.71-3.22l-8.13-3.54v-18h8.13ZM87.69,82.13h3.81v10.92l-.98-1.27c-.22-.28-.56-.46-.93-.46s-.7.16-.93.46l-.98,1.27v-10.92h.01ZM55.87,80.96c0-3.5,2.85-6.35,6.35-6.35s6.35,2.85,6.35,6.35-2.85,6.35-6.35,6.35-6.35-2.85-6.35-6.35ZM71.58,105.5l-3.55-4.51c-.3-.39-.83-.54-1.3-.39-.47.16-.79.61-.79,1.1v10.07c0,.29.12.57.32.8l11.06,11.94c.34.36.55.82.62,1.31l2.04,15.13c.19,1.35-.73,2.59-2.06,2.82-.67.12-1.34-.04-1.89-.42s-.93-.97-1.04-1.63l-2.46-14c-.04-.21-.13-.4-.26-.56l-4.24-4.97c-.22-.27-.55-.41-.89-.41-.14,0-.27.02-.41.07-.46.18-.76.61-.76,1.1v5.61c0,1.09-.45,2.16-1.22,2.92l-10.82,10.62c-.48.47-1.1.76-1.77.71-.67,0-1.29-.27-1.76-.75-.94-.96-.95-2.52-.01-3.49l6.81-6.98c.21-.22.33-.52.33-.82v-36.87c0-1.63,1.32-2.95,2.95-2.95h5.36c.45,0,.88.21,1.15.56l7.63,9.89c.12.15.28.28.46.36l9.36,4.08c1.23.54,1.8,1.98,1.27,3.21-.26.6-.74,1.07-1.35,1.3s-1.28.22-1.88-.05l-10.9-4.8ZM84.12,112.79c.36-.05.71-.13,1.07-.27,1.2-.47,2.13-1.37,2.65-2.55.11-.25.18-.49.23-.74h15.08c.64,0,1.17-.53,1.17-1.17v-27.09c0-.64-.53-1.17-1.17-1.17h-19.03v-23.63h37.62v55.51h-17.26c-.64,0-1.17.53-1.17,1.17v5.5h-16.78c-.64,0-1.17.53-1.17,1.17v11.88h-1.23v-18.61ZM87.69,120.7h15.61v10.7h-15.61v-10.7ZM100.44,143.82c-5.63,0-10.21-4.49-10.37-10.08h4.63c.16,3.04,2.67,5.47,5.75,5.47s5.59-2.43,5.75-5.47h4.63c-.19,5.58-4.77,10.08-10.39,10.08ZM139.92,143.82c-5.73,0-10.39-4.66-10.39-10.39s4.66-10.39,10.39-10.39,10.39,4.66,10.39,10.39-4.66,10.39-10.39,10.39Z"/>
    <path class="st0" d="M139.92,127.63c-3.19,0-5.79,2.59-5.79,5.79s2.59,5.79,5.79,5.79,5.79-2.59,5.79-5.79-2.6-5.79-5.79-5.79ZM139.92,136.87c-1.9,0-3.45-1.55-3.45-3.45s1.55-3.45,3.45-3.45,3.45,1.55,3.45,3.45c-.01,1.9-1.55,3.45-3.45,3.45Z"/>
  </g>
  <circle class="st1" cx="100" cy="100" r="86.2"/>
</svg>