<?xml version="1.0" encoding="UTF-8"?>
<svg id="Layer_1" xmlns="http://www.w3.org/2000/svg" version="1.1" viewBox="0 0 200 200">
  <!-- Generator: Adobe Illustrator 29.1.0, SVG Export Plug-In . SVG Version: 2.1.0 Build 142)  -->
  <defs>
    <style>
      .st0 {
        fill: #116087;
        fill-rule: evenodd;
      }

      .st1 {
        fill: none;
        stroke: #116087;
        stroke-miterlimit: 10;
        stroke-width: 3px;
      }
    </style>
  </defs>
  <circle class="st1" cx="100" cy="100" r="86.2"/>
  <path class="st0" d="M152.98,141.19h-18.44v-7.27c0-4.01,3.26-7.27,7.27-7.27h3.89c4.01,0,7.27,3.26,7.27,7.27v7.27ZM143.76,113.31c2.69,0,4.87,2.18,4.87,4.87s-2.19,4.87-4.87,4.87-4.87-2.18-4.87-4.87,2.18-4.87,4.87-4.87ZM149.66,123.99c1.47-1.5,2.39-3.55,2.39-5.81,0-4.57-3.72-8.29-8.29-8.29s-8.29,3.72-8.29,8.29c0,2.26.91,4.32,2.39,5.81-3.94,1.58-6.74,5.43-6.74,9.93v7.76c0,1.61,1.32,2.93,2.93,2.93h19.41c1.61,0,2.93-1.32,2.93-2.93v-7.76c0-4.5-2.79-8.35-6.74-9.93h0ZM84.04,50.81h20.75v22.9h-4.79c-.74-2.57-3.11-4.45-5.92-4.45s-5.17,1.88-5.92,4.45h-4.13v-22.9h0ZM116.33,59.72c.46.68,4.49,5.57,4.53,5.68v8.3s-.23,0-.23,0c-.74-2.57-3.11-4.45-5.91-4.45s-5.18,1.88-5.92,4.45h-.58v-13.98h8.12ZM114.71,78.16c1.51,0,2.74-1.23,2.74-2.74s-1.23-2.74-2.74-2.74-2.74,1.23-2.74,2.74c0,1.51,1.23,2.74,2.74,2.74ZM94.09,78.16c1.51,0,2.74-1.23,2.74-2.74s-1.23-2.74-2.74-2.74-2.74,1.23-2.74,2.74,1.23,2.74,2.74,2.74ZM83.61,77.12h4.57c.74,2.57,3.11,4.45,5.92,4.45s5.17-1.88,5.92-4.45h8.78c.74,2.57,3.11,4.45,5.92,4.45s5.17-1.88,5.91-4.45h1.95c.94,0,1.71-.77,1.71-1.71v-10.61c-.01-.39-.14-.76-.38-1.07l-4.83-6.08c-.2-.34-.79-1.36-2.1-1.36h-8.76v-5.93c0-1.65-1.34-2.98-2.98-2.98h-21.62c-1.64,0-2.98,1.34-2.98,2.98v23.77c0,1.64,1.34,2.98,2.98,2.98h0ZM66.29,137.86v-7.56c0-1.26-.98-2.28-2.18-2.28h-6.1c-1.2,0-2.18,1.02-2.18,2.28v7.56h-7.19v-14.88h24.85v14.88h-7.19ZM62.88,137.86v-6.42h-3.63v6.42h3.63ZM47.02,119.5l14.17-6.74,13.92,6.73v.06h-28.09v-.05ZM76.79,116.51l-14.85-7.18c-.47-.23-1.01-.23-1.48,0l-15.11,7.18c-1.08.51-1.75,1.58-1.75,2.78v1.25c0,1.06.68,1.96,1.62,2.29v16.73c0,.94.77,1.71,1.71,1.71h28.27c.95,0,1.71-.77,1.71-1.71v-16.73c.94-.34,1.62-1.24,1.62-2.29v-1.26c0-1.19-.67-2.25-1.74-2.77h0ZM135.12,106.81c0-8.59-3.28-16.74-9.23-22.94-.65-.68-.63-1.76.05-2.42.68-.65,1.76-.63,2.42.05,6.57,6.84,10.18,15.82,10.18,25.3,0,.94-.77,1.71-1.71,1.71s-1.71-.76-1.71-1.71ZM78.07,81.46c.68.65.7,1.74.05,2.42-5.95,6.2-9.23,14.34-9.23,22.94,0,.94-.76,1.71-1.71,1.71s-1.71-.76-1.71-1.71c0-9.48,3.62-18.47,10.18-25.3.65-.68,1.74-.7,2.42-.05h0ZM120.01,136.68c.45.83.14,1.87-.69,2.31-10.75,5.8-23.88,5.81-34.63,0-.83-.45-1.14-1.48-.69-2.31.45-.83,1.48-1.14,2.31-.69,9.75,5.26,21.63,5.26,31.39,0,.83-.45,1.87-.14,2.31.69h0ZM121.36,108.41l-3.26,1.06c-.56.18-.98.63-1.13,1.2-.36,1.4-.92,2.75-1.66,4-.3.5-.32,1.12-.05,1.65l1.56,3.06-2.26,2.26-3.06-1.56c-.52-.27-1.14-.25-1.65.05-1.25.74-2.6,1.3-4,1.66-.57.15-1.02.57-1.2,1.13l-1.06,3.26h-3.19l-1.06-3.26c-.18-.56-.63-.98-1.2-1.13-1.4-.36-2.75-.92-4-1.66-.5-.3-1.13-.32-1.65-.05l-3.06,1.56-2.26-2.26,1.56-3.06c.27-.52.25-1.14-.05-1.65-.74-1.25-1.3-2.6-1.66-4-.15-.57-.57-1.02-1.13-1.2l-3.26-1.06v-3.19l3.26-1.06c.56-.18.98-.63,1.13-1.2.36-1.4.92-2.75,1.66-4,.3-.5.32-1.12.05-1.65l-1.56-3.06,2.26-2.26,3.06,1.56c.52.26,1.14.25,1.65-.05,1.25-.74,2.6-1.3,4-1.66.57-.14,1.02-.57,1.2-1.13l1.06-3.26h3.19l1.06,3.26c.18.56.63.98,1.2,1.13,1.4.36,2.75.92,4,1.66.5.3,1.13.32,1.65.05l3.06-1.56,2.26,2.26-1.56,3.06c-.27.52-.25,1.14.05,1.65.74,1.25,1.3,2.6,1.66,4,.14.57.57,1.02,1.13,1.2l3.26,1.06v3.19ZM123.6,102.35l-3.57-1.16c-.34-1.08-.78-2.13-1.3-3.14l1.71-3.35c.34-.66.21-1.46-.31-1.98l-4.01-4.01c-.52-.52-1.33-.65-1.99-.31l-3.35,1.71c-1.01-.53-2.06-.96-3.14-1.3l-1.16-3.58c-.23-.7-.89-1.18-1.63-1.18h-5.67c-.74,0-1.4.48-1.63,1.18l-1.16,3.58c-1.08.34-2.13.77-3.14,1.3l-3.35-1.71c-.66-.34-1.46-.21-1.98.31l-4.01,4.01c-.52.52-.65,1.32-.32,1.98l1.71,3.35c-.53,1.01-.96,2.05-1.3,3.14l-3.58,1.16c-.7.23-1.18.88-1.18,1.63v5.67c0,.74.48,1.4,1.18,1.63l3.58,1.16c.34,1.08.77,2.13,1.3,3.14l-1.71,3.35c-.34.66-.21,1.46.32,1.98l4.01,4.01c.52.52,1.32.65,1.98.31l3.35-1.71c1.01.53,2.05.96,3.14,1.3l1.16,3.58c.23.7.89,1.18,1.63,1.18h5.67c.74,0,1.4-.48,1.63-1.18l1.16-3.58c1.08-.34,2.13-.77,3.14-1.3l3.35,1.71c.66.34,1.46.21,1.99-.31l4.01-4.01c.52-.52.65-1.33.31-1.98l-1.71-3.35c.53-1.01.96-2.05,1.3-3.14l3.57-1.16c.7-.23,1.18-.89,1.18-1.63v-5.67c0-.74-.48-1.4-1.18-1.63h0ZM102.01,115.78c4.94,0,8.96-4.02,8.96-8.96s-4.02-8.96-8.96-8.96-8.96,4.02-8.96,8.96,4.02,8.96,8.96,8.96ZM102.01,94.43c-6.83,0-12.38,5.55-12.38,12.38s5.55,12.38,12.38,12.38,12.38-5.55,12.38-12.38-5.55-12.38-12.38-12.38Z"/>
</svg>