<?xml version="1.0" encoding="UTF-8"?>
<svg id="Layer_1" xmlns="http://www.w3.org/2000/svg" version="1.1" viewBox="0 0 128 128">
  <!-- Generator: Adobe Illustrator 29.1.0, SVG Export Plug-In . SVG Version: 2.1.0 Build 142)  -->
  <defs>
    <style>
      .st0 {
        fill: #fff;
      }

      .st1 {
        fill: #116087;
      }
    </style>
  </defs>
  <path class="st1" d="M109.6,54.1c-2.1-2-4.1-4-6.2-6.1,0-2.8,0-5.6-.2-8.5,0-3.8-1.8-7.4-4.5-10.2-2.8-2.8-6.4-4.4-10.2-4.5-2.8-.1-5.6-.2-8.5-.2-2-2.1-4.1-4.1-6.1-6.2-2.7-2.8-6.2-4.3-9.9-4.3s-7.2,1.6-9.9,4.3c-2,2.1-4,4.1-6.1,6.2-2.8.1-5.6.1-8.5.2-7.8.3-14.5,6.9-14.7,14.7-.1,2.8-.2,5.6-.2,8.5-2.1,2-4.2,4.1-6.2,6.1-2.8,2.7-4.4,6.2-4.4,9.9s1.5,7.2,4.3,9.9c2.1,2,4.2,4,6.2,6.1.1,2.8.1,5.6.2,8.5.1,3.8,1.8,7.4,4.5,10.2,2.8,2.8,6.4,4.4,10.2,4.5,2.8,0,5.6.2,8.5.2,2,2.1,4.1,4.1,6.1,6.2,2.7,2.8,6.2,4.3,9.9,4.3s7.2-1.5,9.9-4.3c2-2.1,4-4.1,6.1-6.2,2.8,0,5.6,0,8.5-.2,7.8-.3,14.5-6.9,14.7-14.7,0-2.8.2-5.6.2-8.5,2.1-2,4.2-4.1,6.2-6.1,2.8-2.7,4.3-6.2,4.3-9.9.2-3.7-1.4-7.2-4.2-9.9h0Z"/>
  <path class="st0" d="M88.8,57.7c-8.4,8.8-17,17.7-25.4,26.6-1.4,1.5-3.3,2.3-5.3,2.3h0c-2,0-3.9-.8-5.3-2.3-4.5-4.6-9-9.3-13.5-13.9-2.8-2.9-2.8-7.5,0-10.3h0c3-3,7.7-2.9,10.5,0,2.7,2.8,5.4,5.5,8.1,8.3,6.7-7,13.4-14,20-21,2.8-3,7.5-3,10.5-.2,3,2.9,3.2,7.5.3,10.5h0Z"/>
</svg>